<svg width="33" height="32" viewBox="0 0 33 32" fill="none" xmlns="http://www.w3.org/2000/svg">
<path d="M16.5 26.1933C14.6986 24.9253 12.6133 24.1173 10.4266 23.8453C8.87576 23.5302 7.29572 23.3814 5.71329 23.4013C5.51081 23.4031 5.30999 23.3647 5.12242 23.2884C4.93484 23.2122 4.76423 23.0995 4.62043 22.957C4.47663 22.8144 4.3625 22.6448 4.28461 22.4579C4.20672 22.271 4.16662 22.0705 4.16663 21.868L4.19463 7.34398C4.19377 6.95428 4.34134 6.57887 4.60733 6.29406C4.87332 6.00925 5.23777 5.8364 5.62663 5.81065C7.23748 5.77862 8.84702 5.92259 10.4266 6.23998C12.6109 6.52179 14.6946 7.32782 16.5 8.58931M16.5 26.1933V8.58931M16.5 26.1933C18.3013 24.9253 20.3866 24.1173 22.5733 23.8453C24.1242 23.5302 25.7042 23.3814 27.2866 23.4013C27.4891 23.4031 27.6899 23.3647 27.8775 23.2884C28.0651 23.2122 28.2357 23.0995 28.3795 22.957C28.5233 22.8144 28.6374 22.6448 28.7153 22.4579C28.7932 22.271 28.8333 22.0705 28.8333 21.868L28.804 7.34398C28.8048 6.95449 28.6575 6.57927 28.3917 6.29449C28.126 6.00971 27.7619 5.83672 27.3733 5.81065C25.7624 5.77862 24.1529 5.92259 22.5733 6.23998C20.389 6.52179 18.3053 7.32782 16.5 8.58931" stroke="black" stroke-linecap="round" stroke-linejoin="round"/>
</svg>
